<mxfile host="app.diagrams.net" modified="2024-04-16T20:07:14.229Z" agent="Mozilla/5.0 (Windows NT 10.0; Win64; x64; rv:124.0) Gecko/20100101 Firefox/124.0" etag="S1_AEx2nQ7TtVdOJMzA0" version="24.2.5" type="device">
  <diagram name="Page-1" id="5f0bae14-7c28-e335-631c-24af17079c00">
    <mxGraphModel dx="2332" dy="1133" grid="1" gridSize="10" guides="1" tooltips="1" connect="1" arrows="1" fold="1" page="1" pageScale="1" pageWidth="1100" pageHeight="850" background="none" math="0" shadow="0">
      <root>
        <mxCell id="0" />
        <mxCell id="1" parent="0" />
        <mxCell id="StQx2P4CLoyAsLgXoL9c-78" value="Gestione utente" style="shape=module;align=left;spacingLeft=20;align=center;verticalAlign=top;whiteSpace=wrap;html=1;" vertex="1" parent="1">
          <mxGeometry x="-104.5" y="760" width="99.5" height="50" as="geometry" />
        </mxCell>
        <mxCell id="StQx2P4CLoyAsLgXoL9c-79" value="" style="html=1;verticalAlign=bottom;startArrow=oval;startFill=1;endArrow=none;startSize=8;curved=0;rounded=0;endFill=0;entryX=0.5;entryY=1;entryDx=0;entryDy=0;" edge="1" parent="1" target="StQx2P4CLoyAsLgXoL9c-78">
          <mxGeometry width="60" relative="1" as="geometry">
            <mxPoint x="-15" y="830" as="sourcePoint" />
            <mxPoint x="-118" y="261.86" as="targetPoint" />
            <Array as="points">
              <mxPoint x="-55" y="830" />
            </Array>
          </mxGeometry>
        </mxCell>
        <mxCell id="StQx2P4CLoyAsLgXoL9c-80" value="" style="html=1;verticalAlign=bottom;startArrow=oval;startFill=1;endArrow=none;startSize=8;curved=0;rounded=0;endFill=0;entryX=0.5;entryY=1;entryDx=0;entryDy=0;" edge="1" parent="1" target="StQx2P4CLoyAsLgXoL9c-78">
          <mxGeometry width="60" relative="1" as="geometry">
            <mxPoint x="-15" y="850" as="sourcePoint" />
            <mxPoint x="-55" y="820" as="targetPoint" />
            <Array as="points">
              <mxPoint x="-55" y="850" />
            </Array>
          </mxGeometry>
        </mxCell>
        <mxCell id="StQx2P4CLoyAsLgXoL9c-81" value="Login" style="text;html=1;align=center;verticalAlign=middle;whiteSpace=wrap;rounded=0;" vertex="1" parent="1">
          <mxGeometry x="-20" y="814" width="60" height="30" as="geometry" />
        </mxCell>
        <mxCell id="StQx2P4CLoyAsLgXoL9c-82" value="Logout" style="text;html=1;align=center;verticalAlign=middle;whiteSpace=wrap;rounded=0;" vertex="1" parent="1">
          <mxGeometry x="-17" y="834" width="60" height="30" as="geometry" />
        </mxCell>
        <mxCell id="StQx2P4CLoyAsLgXoL9c-83" value="Registrazione" style="text;html=1;align=center;verticalAlign=middle;whiteSpace=wrap;rounded=0;" vertex="1" parent="1">
          <mxGeometry x="-9" y="854" width="82" height="30" as="geometry" />
        </mxCell>
        <mxCell id="StQx2P4CLoyAsLgXoL9c-84" value="" style="html=1;verticalAlign=bottom;startArrow=oval;startFill=1;endArrow=none;startSize=8;curved=0;rounded=0;endFill=0;entryX=0.5;entryY=1;entryDx=0;entryDy=0;" edge="1" parent="1">
          <mxGeometry width="60" relative="1" as="geometry">
            <mxPoint x="-15" y="870" as="sourcePoint" />
            <mxPoint x="-55" y="830" as="targetPoint" />
            <Array as="points">
              <mxPoint x="-55" y="870" />
            </Array>
          </mxGeometry>
        </mxCell>
        <mxCell id="StQx2P4CLoyAsLgXoL9c-85" value="Gestione Autenticazione" style="shape=module;align=left;spacingLeft=20;align=center;verticalAlign=top;whiteSpace=wrap;html=1;" vertex="1" parent="1">
          <mxGeometry x="642" y="530" width="107.75" height="50" as="geometry" />
        </mxCell>
        <mxCell id="StQx2P4CLoyAsLgXoL9c-86" value="" style="ellipse;whiteSpace=wrap;html=1;align=center;aspect=fixed;fillColor=none;strokeColor=none;resizable=0;perimeter=centerPerimeter;rotatable=0;allowArrows=0;points=[];outlineConnect=1;" vertex="1" parent="1">
          <mxGeometry x="761.75" y="550" width="10" height="10" as="geometry" />
        </mxCell>
        <mxCell id="StQx2P4CLoyAsLgXoL9c-87" value="" style="shape=providedRequiredInterface;html=1;verticalLabelPosition=bottom;sketch=0;rotation=-180;fillColor=#f8cecc;strokeColor=#b85450;" vertex="1" parent="1">
          <mxGeometry x="550" y="535" width="20" height="20" as="geometry" />
        </mxCell>
        <mxCell id="StQx2P4CLoyAsLgXoL9c-88" value="Auth" style="text;html=1;align=center;verticalAlign=middle;whiteSpace=wrap;rounded=0;rotation=-90;" vertex="1" parent="1">
          <mxGeometry x="-101" y="726" width="60" height="30" as="geometry" />
        </mxCell>
        <mxCell id="StQx2P4CLoyAsLgXoL9c-89" value="Gestione &lt;br&gt;&lt;div&gt;DataBase&lt;/div&gt;" style="shape=module;align=left;spacingLeft=20;align=center;verticalAlign=top;whiteSpace=wrap;html=1;" vertex="1" parent="1">
          <mxGeometry x="639.25" y="610" width="107.75" height="50" as="geometry" />
        </mxCell>
        <mxCell id="StQx2P4CLoyAsLgXoL9c-90" value="Data" style="text;html=1;align=center;verticalAlign=middle;whiteSpace=wrap;rounded=0;" vertex="1" parent="1">
          <mxGeometry x="578" y="560" width="60" height="30" as="geometry" />
        </mxCell>
        <mxCell id="StQx2P4CLoyAsLgXoL9c-91" value="" style="html=1;verticalAlign=bottom;startArrow=oval;startFill=1;endArrow=none;startSize=8;curved=0;rounded=0;endFill=0;entryX=0.5;entryY=1;entryDx=0;entryDy=0;" edge="1" parent="1">
          <mxGeometry width="60" relative="1" as="geometry">
            <mxPoint x="-95" y="830" as="sourcePoint" />
            <mxPoint x="-55" y="810" as="targetPoint" />
            <Array as="points">
              <mxPoint x="-55" y="830" />
            </Array>
          </mxGeometry>
        </mxCell>
        <mxCell id="StQx2P4CLoyAsLgXoL9c-92" value="Visualizzazione evento" style="text;html=1;align=center;verticalAlign=middle;whiteSpace=wrap;rounded=0;" vertex="1" parent="1">
          <mxGeometry x="-226" y="814" width="124" height="30" as="geometry" />
        </mxCell>
        <mxCell id="StQx2P4CLoyAsLgXoL9c-93" value="" style="html=1;verticalAlign=bottom;startArrow=oval;startFill=1;endArrow=none;startSize=8;curved=0;rounded=0;endFill=0;entryX=0.5;entryY=1;entryDx=0;entryDy=0;" edge="1" parent="1" target="StQx2P4CLoyAsLgXoL9c-78">
          <mxGeometry width="60" relative="1" as="geometry">
            <mxPoint x="-95" y="850" as="sourcePoint" />
            <mxPoint x="-55" y="830" as="targetPoint" />
            <Array as="points">
              <mxPoint x="-55" y="850" />
            </Array>
          </mxGeometry>
        </mxCell>
        <mxCell id="StQx2P4CLoyAsLgXoL9c-94" value="Visualizzazione dettagli" style="text;html=1;align=center;verticalAlign=middle;whiteSpace=wrap;rounded=0;" vertex="1" parent="1">
          <mxGeometry x="-230" y="834" width="128" height="30" as="geometry" />
        </mxCell>
        <mxCell id="StQx2P4CLoyAsLgXoL9c-95" value="" style="html=1;verticalAlign=bottom;startArrow=oval;startFill=1;endArrow=none;startSize=8;curved=0;rounded=0;endFill=0;entryX=0.5;entryY=1;entryDx=0;entryDy=0;" edge="1" parent="1" target="StQx2P4CLoyAsLgXoL9c-78">
          <mxGeometry width="60" relative="1" as="geometry">
            <mxPoint x="-95" y="870" as="sourcePoint" />
            <mxPoint x="-55" y="830" as="targetPoint" />
            <Array as="points">
              <mxPoint x="-55" y="870" />
            </Array>
          </mxGeometry>
        </mxCell>
        <mxCell id="StQx2P4CLoyAsLgXoL9c-96" value="Filtraggio eventi" style="text;html=1;align=center;verticalAlign=middle;whiteSpace=wrap;rounded=0;" vertex="1" parent="1">
          <mxGeometry x="-190" y="853" width="88" height="30" as="geometry" />
        </mxCell>
        <mxCell id="StQx2P4CLoyAsLgXoL9c-97" value="" style="html=1;verticalAlign=bottom;startArrow=oval;startFill=1;endArrow=none;startSize=8;curved=0;rounded=0;endFill=0;entryX=0.5;entryY=1;entryDx=0;entryDy=0;" edge="1" parent="1">
          <mxGeometry width="60" relative="1" as="geometry">
            <mxPoint x="-95" y="890" as="sourcePoint" />
            <mxPoint x="-55" y="830" as="targetPoint" />
            <Array as="points">
              <mxPoint x="-55" y="890" />
            </Array>
          </mxGeometry>
        </mxCell>
        <mxCell id="StQx2P4CLoyAsLgXoL9c-98" value="Selezione percorsi" style="text;html=1;align=center;verticalAlign=middle;whiteSpace=wrap;rounded=0;" vertex="1" parent="1">
          <mxGeometry x="-206.5" y="873" width="104" height="30" as="geometry" />
        </mxCell>
        <mxCell id="StQx2P4CLoyAsLgXoL9c-99" value="" style="html=1;verticalAlign=bottom;startArrow=oval;startFill=1;endArrow=none;startSize=8;curved=0;rounded=0;endFill=0;entryX=0.5;entryY=1;entryDx=0;entryDy=0;" edge="1" parent="1" target="StQx2P4CLoyAsLgXoL9c-78">
          <mxGeometry width="60" relative="1" as="geometry">
            <mxPoint x="-15" y="890" as="sourcePoint" />
            <mxPoint x="-55" y="850" as="targetPoint" />
            <Array as="points">
              <mxPoint x="-55" y="890" />
            </Array>
          </mxGeometry>
        </mxCell>
        <mxCell id="StQx2P4CLoyAsLgXoL9c-100" value="Selezione aree" style="text;html=1;align=center;verticalAlign=middle;whiteSpace=wrap;rounded=0;" vertex="1" parent="1">
          <mxGeometry x="-7" y="874" width="84" height="30" as="geometry" />
        </mxCell>
        <mxCell id="StQx2P4CLoyAsLgXoL9c-101" value="Gestione amministrazione" style="shape=module;align=left;spacingLeft=20;align=center;verticalAlign=top;whiteSpace=wrap;html=1;" vertex="1" parent="1">
          <mxGeometry x="320" y="760" width="120" height="50" as="geometry" />
        </mxCell>
        <mxCell id="StQx2P4CLoyAsLgXoL9c-102" value="" style="ellipse;whiteSpace=wrap;html=1;align=center;aspect=fixed;fillColor=none;strokeColor=none;resizable=0;perimeter=centerPerimeter;rotatable=0;allowArrows=0;points=[];outlineConnect=1;" vertex="1" parent="1">
          <mxGeometry x="758.75" y="630" width="10" height="10" as="geometry" />
        </mxCell>
        <mxCell id="StQx2P4CLoyAsLgXoL9c-103" value="&lt;div&gt;Data&lt;/div&gt;" style="text;html=1;align=center;verticalAlign=middle;whiteSpace=wrap;rounded=0;" vertex="1" parent="1">
          <mxGeometry x="558" y="648" width="60" height="30" as="geometry" />
        </mxCell>
        <mxCell id="StQx2P4CLoyAsLgXoL9c-104" value="Gestione notifiche" style="shape=module;align=left;spacingLeft=20;align=center;verticalAlign=top;whiteSpace=wrap;html=1;" vertex="1" parent="1">
          <mxGeometry x="40" y="370" width="99.5" height="50" as="geometry" />
        </mxCell>
        <mxCell id="StQx2P4CLoyAsLgXoL9c-105" value="" style="html=1;verticalAlign=bottom;startArrow=oval;startFill=1;endArrow=none;startSize=8;curved=0;rounded=0;endFill=0;entryX=0.5;entryY=1;entryDx=0;entryDy=0;" edge="1" parent="1" target="StQx2P4CLoyAsLgXoL9c-101">
          <mxGeometry width="60" relative="1" as="geometry">
            <mxPoint x="420" y="830" as="sourcePoint" />
            <mxPoint x="400" y="824" as="targetPoint" />
            <Array as="points">
              <mxPoint x="380" y="830" />
            </Array>
          </mxGeometry>
        </mxCell>
        <mxCell id="StQx2P4CLoyAsLgXoL9c-106" value="Creazione eventi" style="text;html=1;align=center;verticalAlign=middle;whiteSpace=wrap;rounded=0;" vertex="1" parent="1">
          <mxGeometry x="428" y="814" width="93" height="30" as="geometry" />
        </mxCell>
        <mxCell id="StQx2P4CLoyAsLgXoL9c-107" value="" style="html=1;verticalAlign=bottom;startArrow=oval;startFill=1;endArrow=none;startSize=8;curved=0;rounded=0;endFill=0;entryX=0.5;entryY=1;entryDx=0;entryDy=0;" edge="1" parent="1" target="StQx2P4CLoyAsLgXoL9c-101">
          <mxGeometry width="60" relative="1" as="geometry">
            <mxPoint x="419.5" y="850" as="sourcePoint" />
            <mxPoint x="379.5" y="830" as="targetPoint" />
            <Array as="points">
              <mxPoint x="379.5" y="850" />
            </Array>
          </mxGeometry>
        </mxCell>
        <mxCell id="StQx2P4CLoyAsLgXoL9c-108" value="Modifica eventi" style="text;html=1;align=center;verticalAlign=middle;whiteSpace=wrap;rounded=0;" vertex="1" parent="1">
          <mxGeometry x="428" y="834" width="82" height="30" as="geometry" />
        </mxCell>
        <mxCell id="StQx2P4CLoyAsLgXoL9c-109" value="" style="html=1;verticalAlign=bottom;startArrow=oval;startFill=1;endArrow=none;startSize=8;curved=0;rounded=0;endFill=0;" edge="1" parent="1">
          <mxGeometry width="60" relative="1" as="geometry">
            <mxPoint x="419.5" y="870" as="sourcePoint" />
            <mxPoint x="380" y="810" as="targetPoint" />
            <Array as="points">
              <mxPoint x="379.5" y="870" />
            </Array>
          </mxGeometry>
        </mxCell>
        <mxCell id="StQx2P4CLoyAsLgXoL9c-110" value="Eliminazione eventi" style="text;html=1;align=center;verticalAlign=middle;whiteSpace=wrap;rounded=0;" vertex="1" parent="1">
          <mxGeometry x="428" y="854" width="108" height="30" as="geometry" />
        </mxCell>
        <mxCell id="StQx2P4CLoyAsLgXoL9c-111" value="" style="html=1;verticalAlign=bottom;startArrow=oval;startFill=1;endArrow=none;startSize=8;curved=0;rounded=0;endFill=0;entryX=0.5;entryY=1;entryDx=0;entryDy=0;" edge="1" parent="1" target="StQx2P4CLoyAsLgXoL9c-101">
          <mxGeometry width="60" relative="1" as="geometry">
            <mxPoint x="340" y="870" as="sourcePoint" />
            <mxPoint x="380" y="810" as="targetPoint" />
            <Array as="points">
              <mxPoint x="379.5" y="870" />
            </Array>
          </mxGeometry>
        </mxCell>
        <mxCell id="StQx2P4CLoyAsLgXoL9c-112" value="Creazione sottocategorie" style="text;html=1;align=center;verticalAlign=middle;whiteSpace=wrap;rounded=0;" vertex="1" parent="1">
          <mxGeometry x="193" y="853" width="139" height="30" as="geometry" />
        </mxCell>
        <mxCell id="StQx2P4CLoyAsLgXoL9c-113" value="" style="html=1;verticalAlign=bottom;startArrow=oval;startFill=1;endArrow=none;startSize=8;curved=0;rounded=0;endFill=0;entryX=0.5;entryY=1;entryDx=0;entryDy=0;" edge="1" parent="1" target="StQx2P4CLoyAsLgXoL9c-101">
          <mxGeometry width="60" relative="1" as="geometry">
            <mxPoint x="340" y="850" as="sourcePoint" />
            <mxPoint x="390" y="820" as="targetPoint" />
            <Array as="points">
              <mxPoint x="380" y="850" />
            </Array>
          </mxGeometry>
        </mxCell>
        <mxCell id="StQx2P4CLoyAsLgXoL9c-114" value="Modifica sottocategorie" style="text;html=1;align=center;verticalAlign=middle;whiteSpace=wrap;rounded=0;" vertex="1" parent="1">
          <mxGeometry x="199" y="833" width="139" height="30" as="geometry" />
        </mxCell>
        <mxCell id="StQx2P4CLoyAsLgXoL9c-115" value="Percorsi" style="text;html=1;align=center;verticalAlign=middle;whiteSpace=wrap;rounded=0;" vertex="1" parent="1">
          <mxGeometry y="770" width="68" height="30" as="geometry" />
        </mxCell>
        <mxCell id="StQx2P4CLoyAsLgXoL9c-116" value="" style="html=1;verticalAlign=bottom;startArrow=oval;startFill=1;endArrow=none;startSize=8;curved=0;rounded=0;endFill=0;entryX=0.5;entryY=1;entryDx=0;entryDy=0;" edge="1" parent="1" target="StQx2P4CLoyAsLgXoL9c-101">
          <mxGeometry width="60" relative="1" as="geometry">
            <mxPoint x="339.5" y="830" as="sourcePoint" />
            <mxPoint x="380" y="810" as="targetPoint" />
            <Array as="points">
              <mxPoint x="379.5" y="830" />
            </Array>
          </mxGeometry>
        </mxCell>
        <mxCell id="StQx2P4CLoyAsLgXoL9c-117" value="Auth" style="text;html=1;align=center;verticalAlign=middle;whiteSpace=wrap;rounded=0;rotation=-90;" vertex="1" parent="1">
          <mxGeometry x="320" y="729" width="60" height="30" as="geometry" />
        </mxCell>
        <mxCell id="StQx2P4CLoyAsLgXoL9c-118" value="Data" style="text;html=1;align=center;verticalAlign=middle;whiteSpace=wrap;rounded=0;rotation=-90;" vertex="1" parent="1">
          <mxGeometry x="-37.5" y="726" width="60" height="30" as="geometry" />
        </mxCell>
        <mxCell id="StQx2P4CLoyAsLgXoL9c-119" value="Data" style="text;html=1;align=center;verticalAlign=middle;whiteSpace=wrap;rounded=0;rotation=-90;" vertex="1" parent="1">
          <mxGeometry x="359" y="729" width="60" height="30" as="geometry" />
        </mxCell>
        <mxCell id="StQx2P4CLoyAsLgXoL9c-120" value="Auth" style="text;html=1;align=center;verticalAlign=middle;whiteSpace=wrap;rounded=0;rotation=0;" vertex="1" parent="1">
          <mxGeometry x="577" y="520" width="60" height="30" as="geometry" />
        </mxCell>
        <mxCell id="StQx2P4CLoyAsLgXoL9c-121" value="" style="shape=providedRequiredInterface;html=1;verticalLabelPosition=bottom;sketch=0;rotation=90;fillColor=#e1d5e7;strokeColor=#9673a6;" vertex="1" parent="1">
          <mxGeometry x="53" y="480" width="20" height="20" as="geometry" />
        </mxCell>
        <mxCell id="StQx2P4CLoyAsLgXoL9c-122" style="edgeStyle=orthogonalEdgeStyle;rounded=0;orthogonalLoop=1;jettySize=auto;html=1;exitX=0.5;exitY=1;exitDx=0;exitDy=0;entryX=0;entryY=0.5;entryDx=0;entryDy=0;entryPerimeter=0;endArrow=none;endFill=0;fillColor=#e1d5e7;strokeColor=#9673a6;" edge="1" parent="1" source="StQx2P4CLoyAsLgXoL9c-104" target="StQx2P4CLoyAsLgXoL9c-121">
          <mxGeometry relative="1" as="geometry">
            <Array as="points">
              <mxPoint x="63" y="420" />
            </Array>
          </mxGeometry>
        </mxCell>
        <mxCell id="StQx2P4CLoyAsLgXoL9c-123" style="edgeStyle=orthogonalEdgeStyle;rounded=0;orthogonalLoop=1;jettySize=auto;html=1;exitX=1;exitY=0.5;exitDx=0;exitDy=0;exitPerimeter=0;entryX=0.558;entryY=-0.003;entryDx=0;entryDy=0;entryPerimeter=0;endArrow=none;endFill=0;fillColor=#e1d5e7;strokeColor=#9673a6;" edge="1" parent="1" source="StQx2P4CLoyAsLgXoL9c-121" target="StQx2P4CLoyAsLgXoL9c-78">
          <mxGeometry relative="1" as="geometry">
            <Array as="points">
              <mxPoint x="63" y="590" />
              <mxPoint x="-49" y="590" />
            </Array>
          </mxGeometry>
        </mxCell>
        <mxCell id="StQx2P4CLoyAsLgXoL9c-124" value="&lt;div&gt;Notifiche&lt;/div&gt;" style="text;html=1;align=center;verticalAlign=middle;whiteSpace=wrap;rounded=0;rotation=-90;" vertex="1" parent="1">
          <mxGeometry x="-70" y="716" width="60" height="30" as="geometry" />
        </mxCell>
        <mxCell id="StQx2P4CLoyAsLgXoL9c-125" value="&lt;div&gt;Notifiche&lt;/div&gt;" style="text;html=1;align=center;verticalAlign=middle;whiteSpace=wrap;rounded=0;rotation=-90;" vertex="1" parent="1">
          <mxGeometry x="42" y="435" width="60" height="30" as="geometry" />
        </mxCell>
        <mxCell id="StQx2P4CLoyAsLgXoL9c-126" value="Data" style="text;html=1;align=center;verticalAlign=middle;whiteSpace=wrap;rounded=0;rotation=-90;" vertex="1" parent="1">
          <mxGeometry x="97" y="428" width="60" height="30" as="geometry" />
        </mxCell>
        <mxCell id="StQx2P4CLoyAsLgXoL9c-127" value="Data" style="text;html=1;align=center;verticalAlign=middle;whiteSpace=wrap;rounded=0;rotation=-90;" vertex="1" parent="1">
          <mxGeometry x="405" y="729" width="60" height="30" as="geometry" />
        </mxCell>
        <mxCell id="StQx2P4CLoyAsLgXoL9c-128" value="&lt;div&gt;Data&lt;/div&gt;" style="text;html=1;align=center;verticalAlign=middle;whiteSpace=wrap;rounded=0;" vertex="1" parent="1">
          <mxGeometry x="570" y="600" width="60" height="30" as="geometry" />
        </mxCell>
        <mxCell id="StQx2P4CLoyAsLgXoL9c-129" style="edgeStyle=orthogonalEdgeStyle;rounded=0;orthogonalLoop=1;jettySize=auto;html=1;exitX=1;exitY=0.5;exitDx=0;exitDy=0;exitPerimeter=0;entryX=0.5;entryY=0;entryDx=0;entryDy=0;endArrow=none;endFill=0;fillColor=#d5e8d4;strokeColor=#82b366;" edge="1" parent="1" source="StQx2P4CLoyAsLgXoL9c-130" target="StQx2P4CLoyAsLgXoL9c-101">
          <mxGeometry relative="1" as="geometry" />
        </mxCell>
        <mxCell id="StQx2P4CLoyAsLgXoL9c-130" value="" style="shape=providedRequiredInterface;html=1;verticalLabelPosition=bottom;sketch=0;rotation=-180;fillColor=#d5e8d4;strokeColor=#82b366;" vertex="1" parent="1">
          <mxGeometry x="550" y="615" width="20" height="20" as="geometry" />
        </mxCell>
        <mxCell id="StQx2P4CLoyAsLgXoL9c-131" style="edgeStyle=orthogonalEdgeStyle;rounded=0;orthogonalLoop=1;jettySize=auto;html=1;exitX=0;exitY=0.5;exitDx=0;exitDy=0;exitPerimeter=0;entryX=0;entryY=0;entryDx=0;entryDy=15;entryPerimeter=0;endArrow=none;endFill=0;fillColor=#d5e8d4;strokeColor=#82b366;" edge="1" parent="1" source="StQx2P4CLoyAsLgXoL9c-130" target="StQx2P4CLoyAsLgXoL9c-89">
          <mxGeometry relative="1" as="geometry" />
        </mxCell>
        <mxCell id="StQx2P4CLoyAsLgXoL9c-132" style="edgeStyle=orthogonalEdgeStyle;rounded=0;orthogonalLoop=1;jettySize=auto;html=1;exitX=0;exitY=0.5;exitDx=0;exitDy=0;exitPerimeter=0;entryX=-0.01;entryY=0.299;entryDx=0;entryDy=0;entryPerimeter=0;endArrow=none;endFill=0;fillColor=#f8cecc;strokeColor=#b85450;" edge="1" parent="1" source="StQx2P4CLoyAsLgXoL9c-87" target="StQx2P4CLoyAsLgXoL9c-85">
          <mxGeometry relative="1" as="geometry" />
        </mxCell>
        <mxCell id="StQx2P4CLoyAsLgXoL9c-133" style="edgeStyle=orthogonalEdgeStyle;rounded=0;orthogonalLoop=1;jettySize=auto;html=1;exitX=1;exitY=0.5;exitDx=0;exitDy=0;exitPerimeter=0;entryX=0.183;entryY=0.2;entryDx=0;entryDy=0;entryPerimeter=0;endArrow=none;endFill=0;fillColor=#f8cecc;strokeColor=#b85450;" edge="1" parent="1" source="StQx2P4CLoyAsLgXoL9c-87" target="StQx2P4CLoyAsLgXoL9c-88">
          <mxGeometry relative="1" as="geometry" />
        </mxCell>
        <mxCell id="StQx2P4CLoyAsLgXoL9c-134" style="edgeStyle=orthogonalEdgeStyle;rounded=0;orthogonalLoop=1;jettySize=auto;html=1;exitX=0.75;exitY=1;exitDx=0;exitDy=0;entryX=1;entryY=0.5;entryDx=0;entryDy=0;entryPerimeter=0;endArrow=none;endFill=0;fillColor=#d5e8d4;strokeColor=#82b366;" edge="1" parent="1" source="StQx2P4CLoyAsLgXoL9c-104" target="StQx2P4CLoyAsLgXoL9c-130">
          <mxGeometry relative="1" as="geometry" />
        </mxCell>
        <mxCell id="StQx2P4CLoyAsLgXoL9c-135" style="edgeStyle=orthogonalEdgeStyle;rounded=0;orthogonalLoop=1;jettySize=auto;html=1;exitX=1;exitY=0.5;exitDx=0;exitDy=0;exitPerimeter=0;entryX=0.161;entryY=0.023;entryDx=0;entryDy=0;entryPerimeter=0;endArrow=none;endFill=0;fillColor=#f8cecc;strokeColor=#b85450;" edge="1" parent="1" source="StQx2P4CLoyAsLgXoL9c-87" target="StQx2P4CLoyAsLgXoL9c-101">
          <mxGeometry relative="1" as="geometry" />
        </mxCell>
        <mxCell id="StQx2P4CLoyAsLgXoL9c-136" value="" style="shape=providedRequiredInterface;html=1;verticalLabelPosition=bottom;sketch=0;rotation=0;fillColor=#d5e8d4;strokeColor=#82b366;" vertex="1" parent="1">
          <mxGeometry x="550" y="645" width="20" height="20" as="geometry" />
        </mxCell>
        <mxCell id="StQx2P4CLoyAsLgXoL9c-137" style="edgeStyle=orthogonalEdgeStyle;rounded=0;orthogonalLoop=1;jettySize=auto;html=1;exitX=1;exitY=0.5;exitDx=0;exitDy=0;exitPerimeter=0;entryX=0;entryY=0;entryDx=0;entryDy=35;entryPerimeter=0;endArrow=none;endFill=0;fillColor=#d5e8d4;strokeColor=#82b366;" edge="1" parent="1" source="StQx2P4CLoyAsLgXoL9c-136" target="StQx2P4CLoyAsLgXoL9c-89">
          <mxGeometry relative="1" as="geometry">
            <mxPoint x="639" y="645" as="targetPoint" />
          </mxGeometry>
        </mxCell>
        <mxCell id="StQx2P4CLoyAsLgXoL9c-138" style="edgeStyle=orthogonalEdgeStyle;rounded=0;orthogonalLoop=1;jettySize=auto;html=1;exitX=0;exitY=0.5;exitDx=0;exitDy=0;exitPerimeter=0;entryX=0.887;entryY=0.016;entryDx=0;entryDy=0;entryPerimeter=0;endArrow=none;endFill=0;fillColor=#d5e8d4;strokeColor=#82b366;" edge="1" parent="1" source="StQx2P4CLoyAsLgXoL9c-136" target="StQx2P4CLoyAsLgXoL9c-101">
          <mxGeometry relative="1" as="geometry" />
        </mxCell>
        <mxCell id="StQx2P4CLoyAsLgXoL9c-139" value="Gestione percorsi" style="shape=module;align=left;spacingLeft=20;align=center;verticalAlign=top;whiteSpace=wrap;html=1;" vertex="1" parent="1">
          <mxGeometry x="320" y="370" width="99.5" height="50" as="geometry" />
        </mxCell>
        <mxCell id="StQx2P4CLoyAsLgXoL9c-140" style="edgeStyle=orthogonalEdgeStyle;rounded=0;orthogonalLoop=1;jettySize=auto;html=1;exitX=1;exitY=0.5;exitDx=0;exitDy=0;exitPerimeter=0;entryX=1;entryY=0.25;entryDx=0;entryDy=0;endArrow=none;endFill=0;fillColor=#dae8fc;strokeColor=#6c8ebf;" edge="1" parent="1" source="StQx2P4CLoyAsLgXoL9c-141" target="StQx2P4CLoyAsLgXoL9c-78">
          <mxGeometry relative="1" as="geometry">
            <Array as="points">
              <mxPoint x="345" y="520" />
              <mxPoint x="170" y="520" />
              <mxPoint x="170" y="773" />
            </Array>
          </mxGeometry>
        </mxCell>
        <mxCell id="StQx2P4CLoyAsLgXoL9c-141" value="" style="shape=providedRequiredInterface;html=1;verticalLabelPosition=bottom;sketch=0;rotation=90;fillColor=#dae8fc;strokeColor=#6c8ebf;" vertex="1" parent="1">
          <mxGeometry x="335" y="480" width="20" height="20" as="geometry" />
        </mxCell>
        <mxCell id="StQx2P4CLoyAsLgXoL9c-142" style="edgeStyle=orthogonalEdgeStyle;rounded=0;orthogonalLoop=1;jettySize=auto;html=1;exitX=0.25;exitY=1;exitDx=0;exitDy=0;entryX=0;entryY=0.5;entryDx=0;entryDy=0;entryPerimeter=0;endArrow=none;endFill=0;fillColor=#dae8fc;strokeColor=#6c8ebf;" edge="1" parent="1" source="StQx2P4CLoyAsLgXoL9c-139" target="StQx2P4CLoyAsLgXoL9c-141">
          <mxGeometry relative="1" as="geometry" />
        </mxCell>
        <mxCell id="StQx2P4CLoyAsLgXoL9c-143" value="Eliminazione sottocategorie" style="text;html=1;align=center;verticalAlign=middle;whiteSpace=wrap;rounded=0;" vertex="1" parent="1">
          <mxGeometry x="179" y="813" width="154" height="30" as="geometry" />
        </mxCell>
        <mxCell id="StQx2P4CLoyAsLgXoL9c-144" value="Percorsi" style="text;html=1;align=center;verticalAlign=middle;whiteSpace=wrap;rounded=0;rotation=90;" vertex="1" parent="1">
          <mxGeometry x="323" y="435" width="68" height="30" as="geometry" />
        </mxCell>
        <mxCell id="StQx2P4CLoyAsLgXoL9c-145" value="" style="shape=providedRequiredInterface;html=1;verticalLabelPosition=bottom;sketch=0;rotation=-90;fillColor=#d5e8d4;strokeColor=#82b366;" vertex="1" parent="1">
          <mxGeometry x="385" y="480" width="20" height="20" as="geometry" />
        </mxCell>
        <mxCell id="StQx2P4CLoyAsLgXoL9c-146" style="edgeStyle=orthogonalEdgeStyle;rounded=0;orthogonalLoop=1;jettySize=auto;html=1;exitX=0.75;exitY=1;exitDx=0;exitDy=0;entryX=1;entryY=0.5;entryDx=0;entryDy=0;entryPerimeter=0;endArrow=none;endFill=0;fillColor=#d5e8d4;strokeColor=#82b366;" edge="1" parent="1" source="StQx2P4CLoyAsLgXoL9c-139" target="StQx2P4CLoyAsLgXoL9c-145">
          <mxGeometry relative="1" as="geometry" />
        </mxCell>
        <mxCell id="StQx2P4CLoyAsLgXoL9c-147" style="edgeStyle=orthogonalEdgeStyle;rounded=0;orthogonalLoop=1;jettySize=auto;html=1;exitX=0;exitY=0.5;exitDx=0;exitDy=0;exitPerimeter=0;entryX=0.873;entryY=0;entryDx=0;entryDy=0;entryPerimeter=0;endArrow=none;endFill=0;fillColor=#d5e8d4;strokeColor=#82b366;" edge="1" parent="1" source="StQx2P4CLoyAsLgXoL9c-145" target="StQx2P4CLoyAsLgXoL9c-78">
          <mxGeometry relative="1" as="geometry">
            <mxPoint x="395" y="495" as="sourcePoint" />
            <mxPoint x="-16.840499999999793" y="753.45" as="targetPoint" />
            <Array as="points">
              <mxPoint x="395" y="625" />
              <mxPoint x="-18" y="625" />
              <mxPoint x="-18" y="760" />
            </Array>
          </mxGeometry>
        </mxCell>
        <mxCell id="StQx2P4CLoyAsLgXoL9c-148" value="Data" style="text;html=1;align=center;verticalAlign=middle;whiteSpace=wrap;rounded=0;rotation=90;" vertex="1" parent="1">
          <mxGeometry x="372" y="435" width="68" height="30" as="geometry" />
        </mxCell>
        <mxCell id="StQx2P4CLoyAsLgXoL9c-149" value="" style="shape=requiredInterface;html=1;verticalLabelPosition=bottom;sketch=0;rotation=-180;" vertex="1" parent="1">
          <mxGeometry x="810" y="545" width="10" height="20" as="geometry" />
        </mxCell>
        <mxCell id="StQx2P4CLoyAsLgXoL9c-150" style="edgeStyle=orthogonalEdgeStyle;rounded=0;orthogonalLoop=1;jettySize=auto;html=1;exitX=1;exitY=0.5;exitDx=0;exitDy=0;entryX=1;entryY=0.5;entryDx=0;entryDy=0;entryPerimeter=0;endArrow=none;endFill=0;" edge="1" parent="1" source="StQx2P4CLoyAsLgXoL9c-85" target="StQx2P4CLoyAsLgXoL9c-149">
          <mxGeometry relative="1" as="geometry" />
        </mxCell>
        <mxCell id="StQx2P4CLoyAsLgXoL9c-151" value="CasDoor" style="text;html=1;align=center;verticalAlign=middle;whiteSpace=wrap;rounded=0;" vertex="1" parent="1">
          <mxGeometry x="819" y="539" width="60" height="30" as="geometry" />
        </mxCell>
        <mxCell id="StQx2P4CLoyAsLgXoL9c-152" value="" style="shape=requiredInterface;html=1;verticalLabelPosition=bottom;sketch=0;rotation=90;" vertex="1" parent="1">
          <mxGeometry x="365.75" y="316" width="10" height="20" as="geometry" />
        </mxCell>
        <mxCell id="StQx2P4CLoyAsLgXoL9c-153" value="OpenRouteService" style="text;html=1;align=center;verticalAlign=middle;whiteSpace=wrap;rounded=0;rotation=-90;" vertex="1" parent="1">
          <mxGeometry x="315.25" y="255" width="109" height="29" as="geometry" />
        </mxCell>
        <mxCell id="StQx2P4CLoyAsLgXoL9c-154" style="edgeStyle=orthogonalEdgeStyle;rounded=0;orthogonalLoop=1;jettySize=auto;html=1;exitX=0.5;exitY=0;exitDx=0;exitDy=0;entryX=1;entryY=0.5;entryDx=0;entryDy=0;entryPerimeter=0;endArrow=none;endFill=0;" edge="1" parent="1" source="StQx2P4CLoyAsLgXoL9c-139" target="StQx2P4CLoyAsLgXoL9c-152">
          <mxGeometry relative="1" as="geometry" />
        </mxCell>
        <mxCell id="StQx2P4CLoyAsLgXoL9c-155" style="edgeStyle=orthogonalEdgeStyle;rounded=0;orthogonalLoop=1;jettySize=auto;html=1;exitX=0;exitY=0;exitDx=0;exitDy=35;exitPerimeter=0;entryX=1;entryY=0.5;entryDx=0;entryDy=0;entryPerimeter=0;endArrow=none;endFill=0;fillColor=#d5e8d4;strokeColor=#82b366;" edge="1" parent="1" source="StQx2P4CLoyAsLgXoL9c-85" target="StQx2P4CLoyAsLgXoL9c-130">
          <mxGeometry relative="1" as="geometry" />
        </mxCell>
      </root>
    </mxGraphModel>
  </diagram>
</mxfile>
